nColumns=19
nRows=92
DataType=double
version=3
OpenSimVersion=4.1
endheader
time	ground_force_calcn_r_vx	ground_force_calcn_r_vy	ground_force_calcn_r_vz	ground_force_calcn_r_px	ground_force_calcn_r_py	ground_force_calcn_r_pz	ground_force_calcn_r_mx	ground_force_calcn_r_my	ground_force_calcn_r_mz	ground_force_calcn_l_vx	ground_force_calcn_l_vy	ground_force_calcn_l_vz	ground_force_calcn_l_px	ground_force_calcn_l_py	ground_force_calcn_l_pz	ground_force_calcn_l_mx	ground_force_calcn_l_my	ground_force_calcn_l_mz
0.65	-2.54984	18.4735	-3.62646	1.24343	0	-0.263509	-0.0810497	0.587201	-0.115271	0	0	0	0	0	0	0	0	0
0.66	-9.85126	74.81	-8.29581	1.27768	0	-0.309968	-0.187371	1.42289	-0.157786	0	0	0	0	0	0	0	0	0
0.67	-18.4493	236.398	-11.904	1.27547	0	-0.320215	-0.179651	2.30193	-0.115916	0	0	0	0	0	0	0	0	0
0.68	-19.0847	537.098	-10.2587	1.2649	0	-0.319803	-0.110022	3.09634	-0.0591409	0	0	0	0	0	0	0	0	0
0.69	-26.3975	882.275	-5.28812	1.2532	0	-0.317939	-0.112193	3.74978	-0.0224752	0	0	0	0	0	0	0	0	0
0.7	-69.0985	1115.57	-7.063	1.24224	0	-0.317557	-0.258253	4.16938	-0.0263977	0	0	0	0	0	0	0	0	0
0.71	-133.985	1217.27	-19.5924	1.23044	0	-0.318915	-0.452854	4.11422	-0.06622	0	0	0	0	0	0	0	0	0
0.72	-197.342	1311.78	-32.1296	1.21529	0	-0.31997	-0.495763	3.29546	-0.0807159	0	0	0	0	0	0	0	0	0
0.73	-235.078	1489.36	-34.4986	1.1958	0	-0.319559	-0.251317	1.59224	-0.0368818	0	0	0	0	0	0	0	0	0
0.74	-222.116	1716.46	-29.6612	1.17216	0	-0.319631	0.112882	-0.872323	0.0150741	0	0	0	0	0	0	0	0	0
0.75	-178.835	1918.15	-23.9126	1.14625	0	-0.320567	0.344565	-3.69573	0.0460728	0	0	0	0	0	0	0	0	0
0.76	-127.726	2055.05	-19.2378	1.11981	0	-0.321226	0.394034	-6.33986	0.0593486	0	0	0	0	0	0	0	0	0
0.77	-77.9202	2122.69	-16.1919	1.09451	0	-0.321674	0.309034	-8.41866	0.0642174	0	0	0	0	0	0	0	0	0
0.78	-36.615	2123.52	-13.6043	1.07073	0	-0.321987	0.169216	-9.81384	0.0628721	0	0	0	0	0	0	0	0	0
0.79	-5.13947	2058.98	-9.67511	1.04853	0	-0.322344	0.0264999	-10.6164	0.0498865	0	0	0	0	0	0	0	0	0
0.8	18.3689	1937.2	-3.52652	1.02751	0	-0.322969	-0.104026	-10.9707	0.0199712	0	0	0	0	0	0	0	0	0
0.81	39.405	1773.05	4.2073	1.00606	0	-0.323839	-0.243077	-10.9374	-0.0259536	0	0	0	0	0	0	0	0	0
0.82	67.9782	1575.29	11.2131	0.981906	0	-0.325191	-0.451146	-10.4546	-0.0744172	0	0	0	0	0	0	0	0	0
0.83	107.974	1343.59	15.7568	0.952234	0	-0.326997	-0.755641	-9.40299	-0.110272	0	0	0	0	0	0	0	0	0
0.84	154.609	1085.8	16.8701	0.916057	0	-0.32901	-1.09959	-7.72228	-0.119982	0	0	0	0	0	0	0	0	0
0.85	182.886	830.499	14.6279	0.879482	0	-0.330754	-1.2257	-5.56599	-0.098036	0	0	0	0	0	0	0	0	0
0.86	175.909	604.283	11.5255	0.849577	0	-0.33124	-0.965269	-3.31589	-0.0632441	0	0	0	0	0	0	0	0	0
0.87	148.142	414.816	9.43386	0.827119	0	-0.329264	-0.471641	-1.32065	-0.0300346	0	0	0	0	0	0	0	0	0
0.88	115.779	260.859	7.16724	0.806078	0	-0.325368	0.0710137	0.159999	0.00439605	0	0	0	0	0	0	0	0	0
0.89	81.0562	143.249	4.27419	0.777126	0	-0.3208	0.533696	0.943191	0.0281424	0	0	0	0	0	0	0	0	0
0.9	45.6815	65.8088	2.56492	0.732712	0	-0.310687	0.749605	1.07988	0.0420887	0	0	0	0	0	0	0	0	0
0.91	19.0907	25.1519	2.35285	0.68116	0	-0.27868	0.634117	0.835444	0.0781521	0	0	0	0	0	0	0	0	0
0.92	0	0	0	0	0	0	0	0	0	0	0	0	0	0	0	0	0	0
0.93	0	0	0	0	0	0	0	0	0	0	0	0	0	0	0	0	0	0
0.94	0	0	0	0	0	0	0	0	0	0	0	0	0	0	0	0	0	0
0.95	0	0	0	0	0	0	0	0	0	0	0	0	0	0	0	0	0	0
0.96	0	0	0	0	0	0	0	0	0	0	0	0	0	0	0	0	0	0
0.97	0	0	0	0	0	0	0	0	0	0	0	0	0	0	0	0	0	0
0.98	0	0	0	0	0	0	0	0	0	0	0	0	0	0	0	0	0	0
0.99	0	0	0	0	0	0	0	0	0	0	0	0	0	0	0	0	0	0
1	0	0	0	0	0	0	0	0	0	0	0	0	0	0	0	0	0	0
1.01	0	0	0	0	0	0	0	0	0	-2.35463	12.8272	-3.0351	1.2569	0	-0.393248	-0.378028	2.05936	-0.487275
1.02	0	0	0	0	0	0	0	0	0	-8.3431	53.0066	-5.67094	1.26167	0	-0.394512	-0.533088	3.38689	-0.362349
1.03	0	0	0	0	0	0	0	0	0	-16.225	175.491	-5.84969	1.25464	0	-0.396451	-0.352515	3.81283	-0.127094
1.04	0	0	0	0	0	0	0	0	0	-22.1579	432.238	1.64536	1.24515	0	-0.393908	-0.153602	2.99635	0.011406
1.05	0	0	0	0	0	0	0	0	0	-38.7083	786.01	18.3345	1.23548	0	-0.391035	-0.0557259	1.13157	0.0263951
1.06	0	0	0	0	0	0	0	0	0	-79.1519	1085.44	37.3171	1.22608	0	-0.390703	0.0843839	-1.15719	-0.0397838
1.07	0	0	0	0	0	0	0	0	0	-130.789	1245.43	51.4358	1.21491	0	-0.393044	0.319206	-3.03962	-0.125535
1.08	0	0	0	0	0	0	0	0	0	-184.825	1370.54	61.9346	1.19865	0	-0.395139	0.510834	-3.78799	-0.17118
1.09	0	0	0	0	0	0	0	0	0	-214.329	1550.54	70.2823	1.17788	0	-0.394921	0.41725	-3.01855	-0.136824
1.1	0	0	0	0	0	0	0	0	0	-196.596	1745.54	72.9803	1.15437	0	-0.394242	0.0781237	-0.693644	-0.029001
1.11	0	0	0	0	0	0	0	0	0	-147.021	1889.9	70.0272	1.12783	0	-0.393777	-0.222737	2.86321	0.106092
1.12	0	0	0	0	0	0	0	0	0	-84.5299	1967.81	64.8662	1.09943	0	-0.393285	-0.300258	6.98983	0.23041
1.13	0	0	0	0	0	0	0	0	0	-21.6148	1987.82	59.3892	1.07082	0	-0.392525	-0.118841	10.9293	0.326529
1.14	0	0	0	0	0	0	0	0	0	37.8066	1952.22	52.9357	1.0426	0	-0.391338	0.272462	14.0692	0.381494
1.15	0	0	0	0	0	0	0	0	0	96.3318	1862.42	44.7705	1.01455	0	-0.38967	0.830422	16.0548	0.385941
1.16	0	0	0	0	0	0	0	0	0	154.708	1722.33	35.6695	0.985664	0	-0.387374	1.50796	16.7877	0.347675
1.17	0	0	0	0	0	0	0	0	0	206.79	1535.94	26.2869	0.955535	0	-0.384775	2.20454	16.3743	0.280239
1.18	0	0	0	0	0	0	0	0	0	240.88	1312.57	16.5751	0.9241	0	-0.382152	2.76386	15.0605	0.190182
1.19	0	0	0	0	0	0	0	0	0	251.388	1069.24	6.44358	0.89195	0	-0.379963	3.08734	13.1315	0.0791348
1.2	0	0	0	0	0	0	0	0	0	239.847	826.971	-2.14807	0.859951	0	-0.378016	3.146	10.8471	-0.0281756
1.21	0	0	0	0	0	0	0	0	0	210.569	605.066	-7.14138	0.829143	0	-0.375365	2.94157	8.45256	-0.0997624
1.22	0	0	0	0	0	0	0	0	0	169.653	415.405	-9.7163	0.801456	0	-0.372565	2.52168	6.17449	-0.144421
1.23	0	0	0	0	0	0	0	0	0	124.54	263.104	-11.4615	0.779448	0	-0.37046	1.97736	4.17739	-0.181978
1.24	0	0	0	0	0	0	0	0	0	81.0763	148.669	-11.5784	0.763382	0	-0.367456	1.39362	2.55547	-0.199022
1.25	0	0	0	0	0	0	0	0	0	44.2932	71.3482	-9.34413	0.750779	0	-0.360926	0.834206	1.34375	-0.175985
1.26	0	0	0	0	0	0	0	0	0	18.8025	27.9062	-5.95289	0.75627	0	-0.348047	0.350038	0.519516	-0.110822
1.27	0	0	0	0	0	0	0	0	0	0	0	0	0	0	0	0	0	0
1.28	0	0	0	0	0	0	0	0	0	0	0	0	0	0	0	0	0	0
1.29	0	0	0	0	0	0	0	0	0	0	0	0	0	0	0	0	0	0
1.3	0	0	0	0	0	0	0	0	0	0	0	0	0	0	0	0	0	0
1.31	0	0	0	0	0	0	0	0	0	0	0	0	0	0	0	0	0	0
1.32	0	0	0	0	0	0	0	0	0	0	0	0	0	0	0	0	0	0
1.33	0	0	0	0	0	0	0	0	0	0	0	0	0	0	0	0	0	0
1.34	-6.68253	14.3184	-4.06792	1.19353	0	-0.281363	0.0795775	-0.170508	0.048442	0	0	0	0	0	0	0	0	0
1.35	-26.7832	61.6029	-9.85524	1.30218	0	-0.297114	-0.23893	0.549553	-0.0879175	0	0	0	0	0	0	0	0	0
1.36	-67.6804	204.266	-16.3857	1.33517	0	-0.29607	-0.492991	1.48789	-0.119355	0	0	0	0	0	0	0	0	0
1.37	-104.301	500.493	-19.2284	1.34024	0	-0.29262	-0.524006	2.51446	-0.0966025	0	0	0	0	0	0	0	0	0
1.38	-105.016	894.41	-16.3873	1.33208	0	-0.289629	-0.404908	3.44855	-0.0631841	0	0	0	0	0	0	0	0	0
1.39	-105.99	1190.55	-15.4045	1.32023	0	-0.288097	-0.375235	4.2149	-0.0545362	0	0	0	0	0	0	0	0	0
1.4	-140.578	1273.14	-25.6565	1.30916	0	-0.288071	-0.522707	4.73387	-0.0953976	0	0	0	0	0	0	0	0	0
1.41	-194.3	1268.14	-43.2489	1.29685	0	-0.288069	-0.731331	4.77318	-0.162786	0	0	0	0	0	0	0	0	0
1.42	-246.792	1349.88	-55.6101	1.28066	0	-0.286461	-0.750461	4.10479	-0.169103	0	0	0	0	0	0	0	0	0
1.43	-255.684	1528.18	-58.3067	1.25973	0	-0.284752	-0.445606	2.66331	-0.101617	0	0	0	0	0	0	0	0	0
1.44	-226.9	1716.38	-55.5424	1.23577	0	-0.284396	-0.0692151	0.523577	-0.016943	0	0	0	0	0	0	0	0	0
1.45	-182.418	1853.51	-50.5544	1.21007	0	-0.284381	0.193709	-1.96823	0.0536835	0	0	0	0	0	0	0	0	0
1.46	-132.627	1928.69	-45.1356	1.18333	0	-0.284265	0.300473	-4.36955	0.102257	0	0	0	0	0	0	0	0	0
1.47	-81.767	1949.5	-40.3031	1.15562	0	-0.284583	0.266569	-6.35558	0.131392	0	0	0	0	0	0	0	0	0
1.48	-27.7433	1924.3	-33.961	1.12616	0	-0.285226	0.1124	-7.79615	0.137591	0	0	0	0	0	0	0	0	0
1.49	34.5332	1860.38	-24.9726	1.09436	0	-0.285975	-0.161536	-8.70232	0.116815	0	0	0	0	0	0	0	0	0
1.5	98.1611	1762.19	-15.6361	1.06145	0	-0.287106	-0.508537	-9.1293	0.0810052	0	0	0	0	0	0	0	0	0
1.51	151.556	1628.71	-7.03658	1.02882	0	-0.288421	-0.848718	-9.1208	0.039405	0	0	0	0	0	0	0	0	0
1.52	191.617	1455.99	1.2156	0.995757	0	-0.289609	-1.14166	-8.67484	-0.00724256	0	0	0	0	0	0	0	0	0
1.53	216.372	1247.86	7.76901	0.961786	0	-0.290927	-1.34524	-7.75829	-0.0483021	0	0	0	0	0	0	0	0	0
1.54	222.459	1020.84	11.4558	0.928379	0	-0.292247	-1.38988	-6.37802	-0.0715732	0	0	0	0	0	0	0	0	0
1.55	209.68	793.823	12.879	0.896881	0	-0.292627	-1.2252	-4.63844	-0.0752541	0	0	0	0	0	0	0	0	0
1.56	182.924	581.549	12.0064	0.866841	0	-0.291614	-0.864659	-2.7489	-0.0567527	0	0	0	0	0	0	0	0	0
